<svg xmlns="http://www.w3.org/2000/svg" xmlns:xlink="http://www.w3.org/1999/xlink" width="32" height="32" viewBox="0 0 32 32" fill="none"><g opacity="1" transform="translate(0 0)  rotate(0 16 16)"><path id="矩形 1" fill-rule="evenodd" style="fill:#F59563" transform="translate(0 0)  rotate(0 16 16)" opacity="1" d="M0,32L32,32L32,0L0,0L0,32Z " /><path id="文本 1" fill-rule="evenodd" style="fill:#FFFFFF" transform="translate(2.359375 11.39453125)  rotate(0 13.640625 4.60546875)" opacity="1" d="M6.04 7.56L4.1 7.56C4.1 7.56 3.55 7.56 2.66 7.65C2.66 7.65 5.6 4.77 5.61 2.73C5.61 2.73 5.61 1.76 5.12 1.05C5.12 1.05 4.36 0 2.82 0C2.82 0 2.46 0 2.12 0.06C2.12 0.06 1.02 0.27 0 1.35L0.96 2.31C0.96 2.31 1.78 1.41 2.59 1.39C2.59 1.39 2.87 1.39 3.11 1.48C3.11 1.48 3.93 1.76 3.93 2.84C3.93 2.84 3.93 3.36 3.63 4C3.63 4 2.92 5.48 0.08 8.03L0.08 9.05L6.04 9.05L6.04 7.56ZM10.17 0C10.17 0 9.35 0 8.72 0.41C8.72 0.41 7.16 1.42 7.16 4.57C7.16 4.57 7.16 6.36 7.7 7.54C7.7 7.54 8.48 9.21 10.17 9.21C10.17 9.21 11.07 9.21 11.75 8.68C11.75 8.68 13.17 7.58 13.17 4.57C13.17 4.57 13.17 2.87 12.68 1.73C12.68 1.73 11.92 0 10.17 0ZM24.29 9.21C22.8 9.21 21.95 8.34 21.95 8.34C21.33 7.71 21.33 6.84 21.33 6.84C21.34 5.34 22.85 4.52 22.85 4.52L22.85 4.46C21.68 3.62 21.68 2.36 21.68 2.36C21.68 1.09 22.72 0.45 22.72 0.45C23.41 0.01 24.35 0.01 24.35 0.01C25.83 0.01 26.52 1 26.52 1C26.93 1.59 26.93 2.38 26.93 2.38C26.93 3.45 25.99 4.24 25.99 4.24C25.89 4.34 25.79 4.41 25.79 4.41L25.79 4.46C27.27 5.29 27.28 6.84 27.28 6.84C27.28 7.99 26.27 8.67 26.27 8.67C25.46 9.21 24.29 9.21 24.29 9.21ZM17.73 6.74L13.96 6.74L13.96 5.54L17.26 0.16L19.37 0.16L19.37 5.4L20.43 5.4L20.43 6.74L19.37 6.74L19.37 9.05L17.73 9.05L17.73 6.74ZM24.87 1.36C24.87 1.36 25.49 1.66 25.49 2.48C25.49 2.48 25.49 3.29 24.86 3.97C24.86 3.97 24.45 3.81 24.16 3.66C24.16 3.66 23.24 3.15 23.24 2.36C23.24 2.36 23.24 2.05 23.37 1.79C23.37 1.79 23.65 1.24 24.32 1.24C24.32 1.24 24.62 1.24 24.87 1.36ZM11.51 4.57C11.51 4.57 11.51 7.82 10.17 7.84C10.17 7.84 8.84 7.83 8.82 4.57C8.82 4.57 8.82 4.08 8.86 3.66C8.86 3.66 9.02 1.37 10.17 1.37C10.17 1.37 11.44 1.44 11.51 4.57ZM17.8 1.75L17.75 1.75C17.39 2.57 17.05 3.19 17.05 3.19L15.67 5.4L17.73 5.4L17.73 3.59C17.73 3.27 17.8 1.75 17.8 1.75ZM24.34 7.97C25.21 7.97 25.51 7.34 25.51 7.34C25.64 7.08 25.64 6.77 25.64 6.77C25.64 6.01 24.79 5.52 24.79 5.52C24.43 5.31 23.67 5 23.67 5C22.91 5.73 22.85 6.64 22.85 6.64C22.85 7.43 23.55 7.79 23.55 7.79C23.92 7.97 24.34 7.97 24.34 7.97Z" /></g></svg>