<svg xmlns="http://www.w3.org/2000/svg" xmlns:xlink="http://www.w3.org/1999/xlink" width="200" height="200" viewBox="0 0 200 200" fill="none"><defs><rect id="path_0" x="0" y="0" width="200" height="200" /></defs><g opacity="1" transform="translate(0 0)  rotate(0 100 100)"><mask id="bg-mask-0" fill="white"><use xlink:href="#path_0"></use></mask><g mask="url(#bg-mask-0)" ><g opacity="1" transform="translate(33 122.90000000000002)  rotate(0 67.8 11.150000000000006)"><path id="分组 2" fill-rule="evenodd" style="fill:#FFFFFF" transform="translate(0 1.7999999999999545)  rotate(0 6.25 8.700000000000003)" opacity="1" d="M5.6 11.3C7.6 11.4 9.2 10.9 10.5 9.8C11.8 8.7 12.5 7.3 12.5 5.5C12.5 1.8 10.3 0 6 0L0 0L0 17.4L3.7 17.4L3.7 11.3L5.6 11.3Z M3.7 8.5L5.3 8.5C7.5 8.5 8.6 7.6 8.6 5.7C8.6 3.9 7.5 2.9 5.4 2.9L3.7 2.9L3.7 8.5Z " /><path id="分组 3" fill-rule="evenodd" style="fill:#FFFFFF" transform="translate(15.099999999999994 1.7999999999999545)  rotate(0 7.650000000000002 8.700000000000003)" opacity="1" d="M6 17.4C8.7 17.4 11 16.6 12.7 15C14.4 13.3 15.3 11.2 15.3 8.5C15.3 2.8 12.2 0 6 0L0 0L0 17.4L6 17.4Z M3.7 14.3L5.7 14.3C7.5 14.3 8.8 13.8 9.8 12.7C10.8 11.7 11.3 10.2 11.3 8.4C11.3 6.7 10.8 5.3 9.7 4.4C8.6 3.5 7.3 2.9 5.6 2.9L3.7 2.9L3.7 3L3.7 14.3Z " /><path id="路径 6" fill-rule="evenodd" style="fill:#FFFFFF" transform="translate(33.3 1.7999999999999545)  rotate(0 4.950000000000003 8.700000000000003)" opacity="1" d="M3.7,7.5L3.7,3L9.9,3L9.9,0L0,0L0,17.4L3.7,17.4L3.7,10.5L9.4,10.5L9.4,7.5L3.7,7.5Z " /><g opacity="1" transform="translate(44.39999999999998 0.10000000000000853)  rotate(0 11.100000000000016 11.100000000000001)"><path id="路径 7" fill-rule="evenodd" style="fill:#FFFFFF" transform="translate(0 0)  rotate(0 4.850000000000016 11.050000000000004)" opacity="1" d="M6.9,13L9.3,13L9.3,10.4L6.9,10.4L6.9,6.6L4.2,6.6L4.2,10.4L2.7,10.4C3.3,8.7 3.8,7.1 4.2,5.4L9.3,5.4L9.3,2.8L4.9,2.8C5.1,1.9 5.3,1.1 5.5,0.2L2.6,0C2.4,1 2.3,1.9 2.1,2.8L0,2.8L0,5.4L1.5,5.4C1.1,7.1 0.6,8.8 0.1,10.3L0.1,13L4.4,13L4.4,15.1C2.9,15.3 1.4,15.4 0,15.5L0.2,18.5L4.2,18L4.2,22.1L6.9,22.1L6.9,17.6L9.5,17.3C9.5,16.3 9.6,15.4 9.7,14.5L6.9,14.8L6.9,13Z " /><path id="路径 8" fill-rule="evenodd" style="fill:#FFFFFF" transform="translate(9.400000000000006 0)  rotate(0 6.400000000000013 11.100000000000001)" opacity="1" d="M2,9.8L1.4,12.1L1.4,14.3L9,14.3L6.5,17.3C5.1,16.6 3.8,16 2.5,15.4L0.9,17.8C3.7,19.2 6.4,20.6 9.3,22.2L11,19.7C10.3,19.4 9.6,19 9,18.7L12.5,14.2L12.5,11.8L4.7,11.8C4.9,11.2 5,10.5 5.2,9.8L12.8,9.8L12.8,7.3L5.8,7.3C6,6.7 6.2,6 6.3,5.3L12.1,5.3L12.1,2.8L6.9,2.8L7.5,0L4.3,0L3.8,2.8L1.1,2.8L1.1,5.3L3.2,5.3L2.7,7.3L0,7.3L0,9.8L2,9.8Z " /></g><path id="分组 5" fill-rule="evenodd" style="fill:#FFFFFF" transform="translate(67.30000000000001 0)  rotate(0 11.250000000000007 11.149999999999991)" opacity="1" d="M2.5 0.3L2.5 4.3L0.3 4.3L0.3 7.2L2.5 7.2L2.5 10.7C1.5 11 0.7 11.2 0 11.4L0.2 14.6L2.5 13.8L2.5 18.2C2.5 18.9 2.2 19.2 1.7 19.2C1.1 19.2 0.5 19.1 0.1 19.1C0.4 20.2 0.7 21.2 0.8 22.1C2.2 22.1 3.2 22 3.7 21.9C4.2 21.8 4.6 21.6 4.9 21.2C5.2 20.8 5.3 20.2 5.3 19.5L5.3 12.9L7 12.3C7 11.5 7 10.5 7.1 9.2L5.3 9.8L5.3 7.1L7 7.1L7 6.4L7 4.3L5.3 4.3L5.3 0.3L2.5 0.3Z M8 13.4L6.2 13.4L6.2 15.9L12.4 15.9C11.6 17.6 9.5 18.8 6.1 19.5C6.8 20.5 7.4 21.4 7.9 22.3C11.3 21.2 13.5 19.7 14.7 17.7C16 19.8 18 21.3 20.7 22.2C21.3 21.1 21.9 20.1 22.5 19.1C19.7 18.5 17.7 17.4 16.6 15.8L22.5 15.8L22.5 13.3L21.2 13.3L21.2 6.6L18.3 6.6L20.1 4.4L20.1 2L13.7 2C13.9 1.5 14.2 0.9 14.5 0.4L11.2 0C10.4 2 9 4.1 7 6.4C7.3 6.6 7.7 6.9 8 7.1L8 13.4Z M14.8 6.6L16.5 4.4L12.1 4.4C11.6 5.2 11 5.9 10.5 6.6L14.8 6.6Z M13.1 9.1L10.7 9.1L10.7 13.3L13 13.3C13.1 12.8 13.1 11.4 13.1 9.1Z M18.3 13.3L18.3 9.1L15.9 9.1C15.9 11.2 15.9 12.6 15.8 13.3L18.3 13.3Z " /><path id="路径 13" fill-rule="evenodd" style="fill:#FFFFFF" transform="translate(90.6 1.699999999999946)  rotate(0 10.900000000000006 9.649999999999999)" opacity="1" d="M0,16.1L0,19.3L21.8,19.3L21.8,16.1L12.7,16.1L12.7,3.2L20.7,3.2L20.7,0L1.2,0L1.2,3.2L9,3.2L9,16.1L0,16.1Z " /><path id="分组 6" fill-rule="evenodd" style="fill:#FFFFFF" transform="translate(113.39999999999998 0.8999999999999915)  rotate(0 11.100000000000009 10.699999999999996)" opacity="1" d="M0 13.8L0 16.4L7 16.4C4.8 17.2 2.7 18 0.5 18.6C1.1 19.6 1.6 20.6 2.1 21.4L9.3 18.6L8 16.4L13.7 16.4L12.5 18.6C15.3 19.4 17.8 20.3 20.2 21.2L21.6 18.5C18.9 17.6 16.6 16.9 14.6 16.4L22.2 16.4L22.2 13.8L19.9 13.8L19.9 0L2.4 0L2.4 13.8L0 13.8Z M5.5 2.6L5.5 3.9L16.8 3.9L16.8 2.6L5.5 2.6Z M16.8 7.2L16.8 5.9L5.5 5.9L5.5 7.2L16.8 7.2Z M16.8 10.5L16.8 9.2L5.5 9.2L5.5 10.5L16.8 10.5Z M16.8 13.8L16.8 12.5L5.5 12.5L5.5 13.8L16.8 13.8Z " /></g><path id="分组 7" fill-rule="evenodd" style="fill:#FFFFFF" transform="translate(29.39999999999999 50.00000000000001)  rotate(0 69.30000000000001 29.300000000000004)" opacity="1" d="M1 18.1C0.4 20 0 22.1 0 24.3C0 26.5 0.3 28.6 1 30.5C1.7 32.4 2.7 34.1 4 35.5C5.3 36.9 6.8 38 8.7 38.8C10.5 39.6 12.6 40 14.9 40C15.8 40 16.6 40 17.5 39.8C18.4 39.7 19.3 39.5 20.1 39.2C20.9 38.9 21.6 38.5 22.3 38C23 37.5 23.6 36.7 24 35.9L24 39.1L24 39L32.2 39L32.2 9.6L24 9.6L24 12.7C23.1 11.1 21.8 10 20.2 9.4C18.6 8.9 16.9 8.6 15.1 8.6C12.8 8.6 10.7 9 8.9 9.8C7 10.6 5.5 11.7 4.1 13.1C2.7 14.5 1.7 16.2 1 18.1Z M8.6 24.4C8.6 25.4 8.8 26.4 9.2 27.4C9.6 28.3 10.1 29.1 10.8 29.7C11.5 30.4 12.3 30.9 13.1 31.3C14 31.7 15 31.9 16 31.9C18.2 31.9 20 31.2 21.4 29.8C22.8 28.4 23.5 26.5 23.5 24.4C23.5 23.4 23.3 22.4 22.9 21.4C22.5 20.5 22 19.7 21.3 19.1C20.6 18.4 19.8 17.9 19 17.5C18.2 17.1 17.1 16.9 16 16.9C14.9 16.9 14 17.1 13.1 17.5C12.2 17.9 11.4 18.4 10.8 19.1C10.1 19.8 9.7 20.6 9.2 21.5C8.8 22.4 8.6 23.4 8.6 24.4Z M61.1 38.8C62.9 37.9 64.5 36.8 65.8 35.4C67.1 34 68.1 32.3 68.8 30.4C69.4 28.5 69.8 26.4 69.8 24.2C69.8 22.1 69.4 20.1 68.9 18.2C68.2 16.4 67.2 14.7 66 13.3C64.7 11.9 63.2 10.8 61.4 10C59.6 9.2 57.6 8.8 55.4 8.8C53.8 8.8 52.2 9.1 50.8 9.6C49.4 10 48.1 10.9 47 12.1L47 0L38.2 0L38.2 39L46.5 39L46.5 35.8C47.2 36.5 47.8 37.1 48.4 37.6C49 38.1 49.6 38.5 50.3 38.9C50.9 39.3 51.6 39.5 52.4 39.7C53.1 39.9 54 40 55 40C57.2 40 59.3 39.6 61.1 38.8Z M56.8 31.3C57.7 30.9 58.5 30.4 59.1 29.7C59.7 29 60.2 28.2 60.6 27.4C60.8 26.5 61.1 25.5 61.1 24.4C61.1 23.4 60.9 22.4 60.6 21.5C60.2 20.6 59.8 19.8 59.1 19.1C58.5 18.4 57.7 17.9 56.8 17.5C55.9 17.1 54.9 16.9 53.9 16.9C52.9 16.9 51.9 17.1 50.9 17.5C50 17.9 49.2 18.4 48.6 19.1C48 19.8 47.5 20.6 47.1 21.4C46.7 22.3 46.6 23.3 46.6 24.4C46.6 25.4 46.8 26.4 47.1 27.4C47.5 28.3 47.9 29.1 48.6 29.7C49.2 30.4 50 30.9 50.9 31.3C51.8 31.7 52.8 31.9 53.8 31.9C54.8 31.9 55.8 31.7 56.8 31.3Z M82.4 21.8C82.7 20.9 83.2 20.1 83.8 19.4C84.4 18.7 85.1 18.1 86 17.7C86.9 17.3 87.9 17.1 88.9 17.1C90.3 17.1 91.6 17.5 92.7 18.2C93.8 18.9 94.6 19.9 95.2 21.2L104 21.2C103.6 19.4 102.9 17.7 102 16.2C101 14.7 99.9 13.5 98.5 12.4C97.1 11.3 95.6 10.5 93.9 9.9C92.2 9.3 90.4 9 88.5 9C86.3 9 84.3 9.4 82.4 10.2C80.5 11 78.9 12.1 77.5 13.5C76.1 14.9 75 16.5 74.2 18.4C73.4 20.3 73 22.3 73 24.5C73 26.7 73.4 28.7 74.2 30.6C75 32.5 76.1 34.2 77.5 35.6C78.9 37 80.6 38.1 82.5 38.9C84.3 39.7 86.4 40.1 88.6 40.1C90.5 40.1 92.2 39.8 93.9 39.2C95.5 38.6 97 37.8 98.4 36.7C99.8 35.7 101 34.4 101.9 32.9C102.8 31.4 103.6 29.8 104.1 28.2L95.3 28.2C94.5 29.4 93.6 30.4 92.6 31.1C91.7 31.7 90.4 32.1 88.9 32.1C87.8 32.1 86.9 31.9 86 31.5C85.2 31.1 84.4 30.6 83.8 29.9C83.2 29.3 82.7 28.5 82.4 27.6C82.1 26.7 81.9 25.7 81.9 24.7C81.9 23.7 82.1 22.7 82.4 21.8Z M110.7 13.5C109.4 14.9 108.4 16.5 107.7 18.4C107.1 20.3 106.7 22.3 106.7 24.4C106.7 26.6 107 28.6 107.7 30.5C108.4 32.4 109.4 34.1 110.7 35.5C112 37 113.6 38.1 115.4 38.9C117.2 39.7 119.3 40.1 121.5 40.1C123.4 40.1 125 39.8 126.5 39.2C127.9 38.5 129.2 37.5 130.4 36L130.4 39.1L138.6 39.1L138.6 0L129.9 0L129.9 12.3C128.7 11.1 127.4 10.2 126 9.7C124.6 9.2 123.1 8.9 121.3 8.9C119.1 8.9 117.1 9.2 115.3 10.1C113.5 11 112 12.1 110.7 13.5Z M119.6 31.3C120.5 31.7 121.5 31.9 122.6 31.9C124.8 31.9 126.7 31.2 128 29.7C129.5 28.3 130.2 26.5 130.2 24.3C130.2 23.3 130 22.3 129.6 21.3C129.2 20.4 128.7 19.6 128 19C127.3 18.3 126.5 17.9 125.7 17.4C124.8 17 123.8 16.8 122.8 16.8C121.8 16.8 120.8 17 119.8 17.4C118.9 17.8 118.1 18.3 117.4 19C116.7 19.7 116.2 20.4 115.8 21.3C115.4 22.2 115.2 23.2 115.2 24.3C115.2 25.3 115.4 26.4 115.8 27.3C116.2 28.2 116.7 29 117.3 29.7C117.9 30.4 118.7 30.9 119.6 31.3Z M65 46.3L65 58.3L67.5 58.3L67.5 54.1L67.5 54.2L68.9 54.2C70.3 54.2 71.4 53.8 72.3 53.1C73.2 52.3 73.7 51.3 73.7 50.1C73.7 47.5 72.2 46.3 69.2 46.3L65 46.3Z M67.5 52.2L68.6 52.2C70.1 52.2 70.8 51.5 70.8 50.2C70.8 48.9 70.1 48.3 68.6 48.3L67.5 48.3L67.5 52.2Z M75.4 58.4L79.6 58.4C81.4 58.4 83 57.8 84.2 56.7C85.4 55.5 86 54.1 86 52.2C86 48.3 83.9 46.3 79.6 46.3L75.4 46.3L75.4 58.3L75.4 58.4Z M77.9 56.2L79.3 56.2C80.5 56.2 81.5 55.8 82.2 55.1C82.9 54.4 83.2 53.4 83.2 52.1C83.2 50.9 82.8 50 82.1 49.3C81.4 48.6 80.4 48.3 79.3 48.3L77.9 48.4L77.9 56.2Z M90.5 58.3L90.5 53.6L94.4 53.6L94.4 51.5L90.5 51.5L90.5 48.4L94.8 48.4L94.9 48.4L94.9 46.3L88 46.3L88 58.3L90.5 58.3Z M96.6 58.2C96.9 58.5 97.2 58.6 97.6 58.6C98.1 58.6 98.4 58.5 98.7 58.2C98.9 57.9 99.1 57.6 99.1 57.2C99.1 56.9 98.9 56.6 98.7 56.3C98.5 56 98.1 55.9 97.7 55.9C97.3 55.9 97 56 96.7 56.3C96.4 56.5 96.2 56.8 96.2 57.2C96.2 57.6 96.3 57.9 96.6 58.2Z M110 55.7C109.1 56.2 108.2 56.5 107.1 56.5C106 56.5 105.1 56.1 104.4 55.4C103.7 54.6 103.4 53.7 103.4 52.5C103.4 51.2 103.7 50.2 104.4 49.5C105.1 48.8 106 48.4 107.2 48.4C108.3 48.4 109.2 48.6 110 49.1L110 46.6C109.1 46.3 108.2 46.1 107 46.1C105.1 46.1 103.6 46.7 102.4 47.9C101.2 49.2 100.6 50.7 100.6 52.6C100.6 54.4 101.1 55.8 102.2 56.9C103.3 58 104.7 58.5 106.5 58.5C107.9 58.5 109 58.3 109.9 57.9L110 55.7Z M113.1 56.9C114.2 58 115.6 58.6 117.3 58.6C119.1 58.6 120.5 58 121.6 56.8C122.7 55.6 123.2 54.1 123.2 52.2C123.2 50.4 122.6 48.9 121.6 47.8C120.5 46.7 119.1 46.1 117.4 46.1C115.5 46.1 114.1 46.7 113 47.9C111.9 49.1 111.3 50.6 111.3 52.5C111.3 54.2 111.8 55.7 113.1 56.9Z M114.8 55.2C115.3 56 116.2 56.3 117.1 56.3C118.1 56.3 118.9 55.9 119.4 55.2C120 54.5 120.2 53.5 120.2 52.3C120.2 51.1 119.9 50.1 119.4 49.3C118.9 48.6 118.1 48.2 117.1 48.2C116.1 48.2 115.3 48.6 114.7 49.3C114.3 50.2 114 51.1 114 52.3C114 53.4 114.3 54.4 114.8 55.2Z M135.6 50.1C135.7 49.8 135.8 49.3 136 48.5L136.1 48.5C136.1 49.5 136 50.3 136 51L136 58.3L138.5 58.5L138.5 46.5L134.9 46.5L132.3 53.7C132.1 54.2 132 54.7 131.8 55.4L131.7 55.4C131.6 54.8 131.4 54.3 131.2 53.7L128.6 46.4L124.9 46.4L124.9 58.4L127.2 58.4L127.2 51.6C127.2 50.6 127.2 49.6 127.1 48.6L127.2 48.6C127.4 49.5 127.5 50 127.6 50.2L130.6 58.4L132.6 58.4L135.6 50.1Z " /><path id="路径 36" fill-rule="evenodd" style="fill:#7E5BF7" transform="translate(47.099999999999994 92.8)  rotate(0 18.150000000000002 8.452610243551547)" opacity="1" d="M7.6,6.4L7.5,6.3L10.5,3.6L0.1,2.6L0,12.9L2.9,10.4C2.9,10.4 3,10.4 3,10.5C10.1,18.4 22.2,19.1 30.1,12C33.7,8.8 36.1,3.7 36.3,0C33.8,4.7 21.8,18.5 7.6,6.4Z " /><path id="路径 37" fill-rule="evenodd" style="fill:#B8E066" transform="translate(101 46.97523578175543)  rotate(0 18.450000000000003 8.012382109122282)" opacity="1" d="M33.8,7.12C27.1,-1.18 15,-2.38 6.8,4.32C3.1,7.42 0.4,12.32 0,16.02C2.8,11.42 15.4,-1.78 29,11.02L29.1,11.12L25.9,13.62L36.2,15.22L36.9,4.82L33.9,7.22C33.9,7.22 33.8,7.22 33.8,7.12Z " /><path id="路径 38" fill-rule="evenodd" style="fill:#FFFFFF" transform="translate(79.5 70.2)  rotate(0 2.0999999999999943 2.0999999999999943)" opacity="1" d="M2.1,4.2C3.3,4.2 4.2,3.2 4.2,2.1C4.2,0.9 3.2,0 2.1,0C1,0 0,0.9 0,2.1C0,3.3 1,4.2 2.1,4.2Z " /><path id="路径 39" fill-rule="evenodd" style="fill:#FFFFFF" transform="translate(45.3 70.2)  rotate(0 2.1000000000000014 2.0999999999999943)" opacity="1" d="M2.1,4.2C3.3,4.2 4.2,3.2 4.2,2.1C4.2,0.9 3.2,0 2.1,0C0.9,0 0,0.9 0,2.1C0,3.3 1,4.2 2.1,4.2Z " /></g></g></svg>