<svg xmlns="http://www.w3.org/2000/svg" xmlns:xlink="http://www.w3.org/1999/xlink" width="32" height="32" viewBox="0 0 32 32" fill="none"><defs><rect id="path_0" x="0" y="0" width="22" height="22" /></defs><g opacity="1" transform="translate(0 0)  rotate(0 16 16)"><path id="矩形 1" fill-rule="evenodd" style="fill:#FFFFFF" transform="translate(0 0)  rotate(0 16 16)" opacity="1" d="M0,32L32,32L32,0L0,0L0,32Z " /><g opacity="1" transform="translate(5 5)  rotate(0 11 11)"><mask id="bg-mask-0" fill="white"><use xlink:href="#path_0"></use></mask><g mask="url(#bg-mask-0)" ><path id="路径 1" fill-rule="evenodd" style="fill:#FFBA15" transform="translate(0.9229732042591028 1.3843902402343737)  rotate(0 10.075665228437662 9.615825035566372)" opacity="1" d="M9.5,0.36L6.74,5.97L0.55,6.86C0.32,6.9 0.11,7.06 0.03,7.3C-0.05,7.54 0.03,7.79 0.19,7.95L4.67,12.32L3.61,18.49C3.58,18.72 3.66,18.97 3.87,19.11C4.07,19.26 4.33,19.27 4.54,19.16L10.08,16.25L15.61,19.15C15.82,19.26 16.08,19.25 16.29,19.11C16.49,18.96 16.58,18.72 16.54,18.48L15.48,12.32L19.96,7.95C20.13,7.79 20.2,7.54 20.12,7.3C20.04,7.06 19.84,6.9 19.6,6.86L13.41,5.97L10.65,0.36C10.54,0.14 10.33,0 10.08,0C9.82,0 9.61,0.15 9.5,0.36Z " /></g></g></g></svg>