<svg xmlns="http://www.w3.org/2000/svg" xmlns:xlink="http://www.w3.org/1999/xlink" width="32" height="32" viewBox="0 0 32 32" fill="none"><defs><rect id="path_0" x="0" y="0" width="32" height="32.00000000000021" /></defs><g opacity="1" transform="translate(0 0)  rotate(0 16 16.000000000000107)"><mask id="bg-mask-0" fill="white"><use xlink:href="#path_0"></use></mask><g mask="url(#bg-mask-0)" ><g opacity="1" transform="translate(0 0)  rotate(0 16 16)"><path id="矩形 1" fill-rule="evenodd" transform="translate(0 0)  rotate(0 16 16)" opacity="1" d="M0,32L32,32L32,0L0,0L0,32Z " /><path id="分组 1" fill-rule="evenodd" style="fill:#F4E5B3" transform="translate(4.482809600830052 4.696434173583981)  rotate(0 11.520000457763672 11.305000305175781)" opacity="1" d="M2.14 22.61C2.42 22.54 2.69 22.3 2.83 21.99C8.14 19.66 11.45 17.91 13.56 16.56L13.56 18.86C13.56 21.19 14.26 21.84 16.7 21.84L18.43 21.84C21.81 21.84 23.01 21.12 23.01 19.73C23.01 19.13 22.75 18.7 21.93 18.29L21.81 14.69L21.57 14.69C21.16 16.1 20.68 17.59 20.37 18.1C20.22 18.3 19.98 18.41 19.72 18.41C19.48 18.43 19.17 18.43 18.81 18.43L17.68 18.43C17.15 18.43 16.99 18.26 16.99 17.78L16.99 9.6C18.5 9.24 20.25 8.66 21.84 7.85C22.48 8.06 22.8 7.99 23.04 7.7L19.6 4.85C18.8 6.07 17.93 7.24 16.99 8.35L16.99 1.13C17.61 1.03 17.83 0.769999 17.85 0.459999L13.56 -5.58671e-07L13.56 7.63C12.64 6.53 11.49 5.3 11.49 5.3L10.03 7.94L10.03 1.08C10.7 0.979999 10.87 0.719999 10.92 0.379999L6.69 -5.58671e-07L6.69 17.57L5.18 17.83L5.18 5.72C5.74 5.62 5.88 5.4 5.93 5.12L2.04 4.78L2.04 18.34C1.22 18.48 0.53 18.58 3.71697e-07 18.65L2.14 22.61Z M13.5596 16.2717L13.5596 8.83169L10.0296 8.83169L10.0296 16.9417C11.1796 16.7317 12.3596 16.5117 13.5596 16.2717Z " /></g></g></g></svg>