<?xml version="1.0" standalone="no"?><!DOCTYPE svg PUBLIC "-//W3C//DTD SVG 1.1//EN" "http://www.w3.org/Graphics/SVG/1.1/DTD/svg11.dtd"><svg t="1691808499456" class="icon" viewBox="0 0 1024 1024" version="1.1" xmlns="http://www.w3.org/2000/svg" p-id="3997" xmlns:xlink="http://www.w3.org/1999/xlink" width="200" height="200"><path d="M512 64c247.424 0 448 200.576 448 448s-200.576 448-448 448S64 759.424 64 512 264.576 64 512 64z m0 160a32 32 0 0 0-32 32v277.333333c0 5.312 1.28 10.325333 3.584 14.72a32 32 0 0 0 14.613333 18.325334l203.221334 117.333333a32 32 0 1 0 32-55.424l-189.44-109.376L544 256a32 32 0 0 0-28.928-31.850667z" fill="#2c2c2c" p-id="3998"></path></svg>