<svg xmlns="http://www.w3.org/2000/svg" xmlns:xlink="http://www.w3.org/1999/xlink" width="32" height="32" viewBox="0 0 32 32" fill="none"><g opacity="1" transform="translate(0 0)  rotate(0 16 15.999999999999998)"><path id="矩形 1" fill-rule="evenodd"  transform="translate(0 0)  rotate(0 16 15.999999999999998)" opacity="1" d="M0,32L32,32L32,0L0,0L0,32Z " /><path id="路径 2" fill-rule="evenodd" style="fill:#000000" transform="translate(9 7.144739314183198)  rotate(0 7 8.855260685816805)" opacity="1" d="M3.8,12.01C3.46,10.97 3.36,9.89 3.39,8.74C3.36,7.83 3.44,6.88 3.71,5.96C4.21,4.22 5.52,3.06 7.05,3C8.9,2.92 9.97,3.67 10.69,5.58C10.76,5.78 10.81,5.86 11.04,5.8C11.93,5.55 12.82,5.35 13.71,5.13C13.94,5.07 14.01,4.95 13.93,4.7C13.55,3.49 13.02,2.4 12.07,1.57C10.59,0.28 8.86,-0.1 7.03,0.02C4.13,0.2 1.99,1.63 0.79,4.49C0.06,6.22 -0.07,8.06 0.03,9.92C0.28,14.75 3.4,17.91 7.81,17.7C10.86,17.55 13.16,15.69 13.97,12.53C14.05,12.21 13.98,12.12 13.7,12.04C13.11,11.86 12.53,11.65 11.94,11.45C10.94,11.12 10.94,11.12 10.59,12.12C10,13.81 8.81,14.73 7.26,14.71C5.63,14.69 4.35,13.69 3.8,12.01Z " /></g></svg>