<svg xmlns="http://www.w3.org/2000/svg" xmlns:xlink="http://www.w3.org/1999/xlink" width="32" height="32" viewBox="0 0 32 32" fill="none"><g opacity="1" transform="translate(0 0)  rotate(0 16 16)"><path id="路径 1" fill-rule="evenodd" style="fill:#FEFEFE" transform="translate(0 0)  rotate(0 16 16)" opacity="1" d="M0,32C10.67,32 21.33,32 32,32C32,21.33 32,10.67 32,0C21.33,0 10.67,0 0,0C0,10.67 0,21.33 0,32Z " /><g opacity="1" transform="translate(7 6.3116937456593405)  rotate(0 9 9.68830625434072)"><g opacity="1" transform="translate(0 0)  rotate(0 9 9.68830625434072)"><path id="路径 2" fill-rule="evenodd" style="fill:#525352" transform="translate(0 0)  rotate(0 9.000000000000002 9.68830625434072)" opacity="1" d="M13.45,5.44C14.92,4.99 16.41,4.84 17.94,4.99C18.14,3.37 17.84,1.87 17.04,0.5C14.67,0.06 12.28,-0.09 9.87,0.05C9.22,2.22 8.77,4.46 8.52,6.78C7.12,7.76 5.78,8.81 4.48,9.92C3.89,10.52 3.29,10.52 2.69,9.92C1.61,9.11 0.87,8.06 0.45,6.78C-0.15,8.58 -0.15,10.37 0.45,12.16C1.64,13.36 2.84,14.55 4.04,15.75C4.48,16.91 4.62,18.11 4.48,19.34C6.17,19.43 6.47,18.99 5.38,17.99C7.63,14.98 8.82,15.42 8.97,19.34C9.63,19.46 10.23,19.31 10.76,18.89C9.82,17.64 9.67,16.3 10.31,14.85C11.88,13.41 12.78,11.61 13,9.47C14,10.56 14.45,10.26 14.35,8.58C13.75,8.58 13.15,8.58 12.56,8.58C12.56,7.98 12.56,7.38 12.56,6.78C13.79,6.92 14.98,6.77 16.14,6.33C15.25,6.03 14.35,5.74 13.45,5.44Z " /></g><g opacity="1" transform="translate(10.750220446380704 1.4000902738490835)  rotate(0 0.38361609587146356 0.4484435055380047)"><path id="路径 3" fill-rule="evenodd" style="fill:#FEFFFE" transform="translate(0 0)  rotate(0 0.38361609587146356 0.4484435055380047)" opacity="1" d="M0.46,0.9C0.99,0.36 0.84,0.06 0.01,0C-0.05,0.39 0.1,0.69 0.46,0.9Z " /></g></g></g></svg>