<svg xmlns="http://www.w3.org/2000/svg" xmlns:xlink="http://www.w3.org/1999/xlink" viewBox="0 0 240 240" fill="none" data-v-715ecedc="" style="height: 100%; width: 100%;"><defs><rect id="path_0" x="0" y="0" width="240" height="240"></rect></defs><g opacity="1" transform="translate(0 0)  rotate(0 120 120)"><mask id="bg-mask-0" fill="white"><use xlink:href="#path_0"></use></mask><g mask="url(#bg-mask-0)"><g opacity="1" transform="translate(15.05 10.15)  rotate(0 102.95000000000003 106.85000000000002)"><g opacity="1" transform="translate(0 0)  rotate(0 92.10000000000001 92.10000000000002)"></g><g opacity="1" transform="translate(14.883552744041253 4.600000000000023)  rotate(0 95.5082236279794 104.55000000000001)"><g opacity="1" transform="translate(6.471897718198335 6.800000000000011)  rotate(0 88.97227476888024 97.85)"><path id="路径 21" fill-rule="evenodd" style="fill:#FED303;" transform="translate(0 0)  rotate(0 88.97227476888024 97.85)" opacity="1" d="M8.24,134.3C4.74,138.6 -1.76,146.7 0.44,157.7C2.44,167.5 10.04,172.7 15.54,175.3L13.14,187.8C12.74,189.8 13.24,191.8 14.54,193.3C15.84,194.8 17.64,195.7 19.64,195.7C19.64,195.7 171.24,195.2 171.34,195.5C173.14,195.5 174.84,194.8 176.04,193.5C177.34,192.3 177.94,190.6 177.94,188.8L175.84,71.8C175.84,71.4 175.74,70.9 175.64,70.4C175.34,69.1 167.84,39.5 140.74,26.9C127.14,20.6 114.84,17.4 104.14,17.4C101.24,17.4 98.74,17.6 96.64,17.9C91.74,9.8 84.04,0 75.84,0C74.74,0 73.64,0.1 72.64,0.5C70.74,1.1 65.44,2.9 62.34,19.2C59.34,17.4 56.14,16.1 53.24,16.1C52.14,16.1 51.14,16.2 50.24,16.5C44.64,18.2 42.84,24.4 41.84,29.6C41.54,31.1 41.34,32.6 41.14,33.9C35.54,37.4 24.64,46.2 15.54,64C3.74,87.1 5.44,109.1 9.14,133.2C8.84,133.6 8.54,134 8.24,134.3Z "></path><path id="路径 24" style="stroke:#603813;stroke-width:10.1604;stroke-opacity:1;stroke-dasharray:0 0;" transform="translate(6.615105678872737 6.423103127437329)  rotate(0 82.31472192944385 91.33844843628135)" d="M68.13,0.18C62.83,1.98 60.73,24.78 60.73,24.78C60.73,24.78 50.23,14.98 45.53,16.38C41.63,17.58 40.83,31.58 40.83,31.58C40.83,31.58 26.43,37.98 14.83,60.68C3.23,83.38 5.93,105.38 9.43,127.98C9.43,131.08 -2.07,138.38 0.33,150.08C2.73,161.68 16.53,164.68 16.53,164.68L13.03,182.68L164.63,182.18L162.53,65.18C162.53,65.18 155.73,37.58 131.23,26.18C106.73,14.78 93.03,16.98 86.63,18.68C80.23,6.88 72.53,-1.32 68.13,0.18Z "></path></g><path id="路径 25" fill-rule="evenodd" style="fill:#FED303;" transform="translate(56.904824375636764 122.2883771196781)  rotate(0 3.8575629406818024 6.461622880321968)" opacity="1" d="M1.81,0.11Z M7.61,9.51L5.11,1.81C4.61,0.41 3.21,-0.29 1.81,0.11C0.41,0.61 -0.29,2.01 0.11,3.41L2.61,11.11C3.11,12.51 4.51,13.21 5.91,12.81C7.21,12.41 8.01,10.91 7.61,9.51Z "></path><path id="路径 25" style="stroke:#603813;stroke-width:9.2645;stroke-opacity:1;stroke-dasharray:0 0;" transform="translate(56.904824375636764 122.2883771196781)  rotate(0 3.8575629406818024 6.461622880321968)" d="M1.81,0.11Z M7.61,9.51L5.11,1.81C4.61,0.41 3.21,-0.29 1.81,0.11C0.41,0.61 -0.29,2.01 0.11,3.41L2.61,11.11C3.11,12.51 4.51,13.21 5.91,12.81C7.21,12.41 8.01,10.91 7.61,9.51Z "></path><path id="路径 26" fill-rule="evenodd" style="fill:#FED303;" transform="translate(123.10482437563692 99.68837711967808)  rotate(0 3.8575629406817598 6.461622880321968)" opacity="1" d="M7.61,9.51L5.11,1.81C4.61,0.41 3.21,-0.29 1.81,0.11C0.41,0.61 -0.29,2.01 0.11,3.41L2.61,11.11C3.11,12.51 4.51,13.21 5.91,12.81C7.21,12.41 8.01,10.91 7.61,9.51Z "></path><path id="路径 26" style="stroke:#603813;stroke-width:9.2645;stroke-opacity:1;stroke-dasharray:0 0;" transform="translate(123.10482437563692 99.68837711967808)  rotate(0 3.8575629406817598 6.461622880321968)" d="M7.61,9.51L5.11,1.81C4.61,0.41 3.21,-0.29 1.81,0.11C0.41,0.61 -0.29,2.01 0.11,3.41L2.61,11.11C3.11,12.51 4.51,13.21 5.91,12.81C7.21,12.41 8.01,10.91 7.61,9.51Z "></path><path id="路径 27" style="stroke:#603813;stroke-width:6.0963;stroke-opacity:1;stroke-dasharray:0 0;" transform="translate(47.916447255958786 97.98651197033078)  rotate(0 4.3500000000000085 2.4567440148346122)" d="M0,4.91C0,2.91 1.2,1.21 2.9,0.41C4.9,-0.49 7.3,0.11 8.7,1.91 "></path><path id="路径 28" style="stroke:#603813;stroke-width:6.0963;stroke-opacity:1;stroke-dasharray:0 0;" transform="translate(114.21644725595874 77.58651197033078)  rotate(0 4.349999999999994 2.4567440148346122)" d="M0,4.91C0,2.91 1.2,1.21 2.9,0.41C4.9,-0.49 7.3,0.11 8.7,1.91 "></path><path id="路径 29" fill-rule="evenodd" style="fill:#FF8F00;" transform="translate(82.41173724799754 111.80000000000001)  rotate(0 13.912170305138318 21.29819881234654)" opacity="1" d="M22.6,42.5C30.8,39.8 27.8,13.5 24,1.4C24,1.4 18.3,3.8 14.8,3.3C11.3,2.9 8.1,0 8.1,0C8.1,0 7.7,3.3 5.8,5.6C4.4,8.2 0,11 0,11C-0.3,11.7 13.8,44.6 22.6,42.5Z "></path><path id="路径 29" style="stroke:#603813;stroke-width:4.0642;stroke-opacity:1;stroke-dasharray:0 0;" transform="translate(82.41173724799754 111.80000000000001)  rotate(0 13.912170305138318 21.29819881234654)" d="M22.6,42.5C30.8,39.8 27.8,13.5 24,1.4C24,1.4 18.3,3.8 14.8,3.3C11.3,2.9 8.1,0 8.1,0C8.1,0 7.7,3.3 5.8,5.6C4.4,8.2 0,11 0,11C-0.3,11.7 13.8,44.6 22.6,42.5Z "></path><path id="路径 30" fill-rule="evenodd" style="fill:#603813;" transform="translate(81.81644725595876 111.80000000000001)  rotate(0 12.299999999999983 5.568344565728509)" opacity="1" d="M0.13,10.39C0.09,10.39 0.04,10.4 0,10.4C0.04,10.4 0.08,10.4 0.13,10.39Z M6.3,9.6C7.3,8.5 9.4,7.1 11.6,6.3C13.3,5.7 16.5,5.6 17.8,6C22.1,7.3 22.5,4.3 24.6,1.4C24.6,1.4 18.9,3.8 15.4,3.3C11.9,2.9 8.7,0 8.7,0C8.7,0 8.8,4.2 7,6.6C5.28,8.79 1.2,10.26 0.13,10.39C3.77,10.16 2.45,12.66 6.3,9.6Z "></path><path id="路径 30" style="stroke:#603813;stroke-width:4.0642;stroke-opacity:1;stroke-dasharray:0 0;" transform="translate(81.81644725595876 111.80000000000001)  rotate(0 12.299999999999983 5.568344565728509)" d="M0.13,10.39C0.09,10.39 0.04,10.4 0,10.4C0.04,10.4 0.08,10.4 0.13,10.39Z M6.3,9.6C7.3,8.5 9.4,7.1 11.6,6.3C13.3,5.7 16.5,5.6 17.8,6C22.1,7.3 22.5,4.3 24.6,1.4C24.6,1.4 18.9,3.8 15.4,3.3C11.9,2.9 8.7,0 8.7,0C8.7,0 8.8,4.2 7,6.6C5.28,8.79 1.2,10.26 0.13,10.39C3.77,10.16 2.45,12.66 6.3,9.6Z "></path><path id="路径 31" fill-rule="evenodd" style="fill:#FF8F00;" transform="translate(29.430729095629687 140.70434340203397)  rotate(-17.673949065799775 13 11.6)" opacity="1" d="M13,0C5.82,0 0,5.19 0,11.6C0,18.01 5.82,23.2 13,23.2C20.18,23.2 26,18.01 26,11.6C26,5.19 20.18,0 13,0Z "></path><path id="路径 32" fill-rule="evenodd" style="fill:#FF8F00;" transform="translate(140.91079085117266 105.69967028177786)  rotate(-17.673949065799775 13 11.6)" opacity="1" d="M13,0C5.82,0 0,5.19 0,11.6C0,18.01 5.82,23.2 13,23.2C20.18,23.2 26,18.01 26,11.6C26,5.19 20.18,0 13,0Z "></path></g></g></g></g></svg>