<svg xmlns="http://www.w3.org/2000/svg" xmlns:xlink="http://www.w3.org/1999/xlink" width="16" height="16" viewBox="0 0 16 16" fill="none"><defs><rect id="path_0" x="0" y="0" width="16" height="16" /></defs><g opacity="1" transform="translate(0 0)  rotate(0 8 8)"><mask id="bg-mask-0" fill="white"><use xlink:href="#path_0"></use></mask><g mask="url(#bg-mask-0)" ><path id="矩形 1" fill-rule="evenodd" transform="translate(0 0)  rotate(0 8 8)" opacity="1" d="M0,16L16,16L16,0L0,0L0,16Z " /><g opacity="1" transform="translate(3 3.053603335318627)  rotate(0 5 4.946396664681365)"><path id="分组 1" fill-rule="evenodd" style="fill:#FFFFFF" transform="translate(0 0)  rotate(0 2.9588653478819222 4.9463966646813615)" opacity="1" d="M0 9.89L0.94 9.89L0.94 6.97L2.19 6.97L2.19 9.89L3.11 9.89L3.11 0.36C3.11 0.16 2.94 0 2.74 0L0 0L0 9.89Z M2.18508 3.96069L0.93508 3.96069L0.93508 6.02069L2.18508 6.02069L2.18508 3.96069Z M2.18508 0.946992L0.93508 0.946992L0.93508 3.04699L2.18508 3.04699L2.18508 0.946992Z M3.68973 3.48422L3.68973 4.43422L4.73973 4.43422L3.54973 9.20422L4.46973 9.43422L5.90973 3.70422C5.92973 3.65422 5.90973 3.59422 5.87973 3.55422C5.83973 3.51422 5.78973 3.48422 5.73973 3.48422L3.68973 3.48422Z " /><path id="路径 6" fill-rule="evenodd" style="fill:#FFFFFF" transform="translate(4.318046456223937 1.745086355307082)  rotate(0 2.8409767718880308 4.073853487027822)" opacity="1" d="M1.82,0.95L1.82,8.15L2.78,8.15L2.78,3.75L4.85,7.7L5.68,7.25L3.39,2.88L5.18,1.38L4.59,0.66L2.94,2.01L2.78,1.69L2.78,0.31C2.78,0.23 2.75,0.15 2.69,0.09C2.63,0.03 2.55,0 2.47,0L0,0L0,0.95L1.82,0.95Z " /><path id="路径 7" fill-rule="evenodd" style="fill:#FFA50A" transform="translate(4.96128648004764 0.017867778439564965)  rotate(0 1.697438951756999 0.4764740917212628)" opacity="1" d="M3.39,0.23C3.39,0.1 3.29,0 3.16,0L0,0L0,0.95L3.39,0.95L3.39,0.23Z " /></g></g></g></svg>