<svg xmlns="http://www.w3.org/2000/svg" xmlns:xlink="http://www.w3.org/1999/xlink" width="32" height="32" viewBox="0 0 32 32" fill="none"><defs><rect id="path_0" x="0" y="0" width="22" height="17.780584056827152" /></defs><g opacity="1" transform="translate(0 0)  rotate(0 16.000000000000004 15.999999999999998)"><path id="矩形 1" fill-rule="evenodd" transform="translate(0 0)  rotate(0 16.000000000000004 15.999999999999998)" opacity="1" d="M0,32L32,32L32,0L0,0L0,32Z " /><g opacity="1" transform="translate(5 7.109707971586431)  rotate(0 11 8.890292028413576)"><mask id="bg-mask-0" fill="white"><use xlink:href="#path_0"></use></mask><g mask="url(#bg-mask-0)" ><path id="分组 1" fill-rule="evenodd" style="fill:#FFFFFF" transform="translate(1.8077602189733613 1.149737626561765)  rotate(0 8.619793395417084 7.713182898388485)" opacity="1" d="M11.08 0.93C11.39 0.72 11.8 0.39 11.77 0.37C11.73 0.33 10.79 0.17 10.21 0.1C7.68 -0.21 5.12 0.21 3 1.27C1.91 1.81 1.23 2.39 0.79 3.13C0.64 3.38 0.54 3.62 0.41 4.02C0.11 4.97 0 5.7 0 6.71C0 7.34 0.02 7.62 0.11 8.16C0.36 9.64 1.05 11.17 1.95 12.25C3.45 14.04 5.53 15.18 7.66 15.38C7.81 15.4 7.98 15.42 8.03 15.42C8.18 15.44 9.23 15.41 9.46 15.39C10.54 15.26 11.44 14.99 12.4 14.53C13.34 14.07 14.05 13.55 14.78 12.81C15.17 12.4 15.42 12.09 15.73 11.64C16.59 10.35 17.07 8.97 17.22 7.38C17.26 6.99 17.24 6.11 17.18 5.69C17.03 4.53 16.72 3.55 16.29 2.93C16.11 2.66 15.72 2.25 15.44 2.02C14.82 1.52 13.9 1.04 12.93 0.72C12.63 0.61 12.23 0.49 12.22 0.5C12.22 0.51 12.32 0.55 12.44 0.6C12.81 0.76 13.48 1.1 13.76 1.29C14.76 1.94 15.02 2.47 14.57 2.92C13.86 3.63 11.98 4.22 9.88 4.4C9.36 4.45 8.32 4.46 7.82 4.43C7.12 4.39 6 4.25 5.94 4.2C5.91 4.16 6.21 3.69 6.44 3.43C6.91 2.9 7.52 2.55 8.86 2.01C9.99 1.56 10.53 1.3 11.08 0.93Z M4.55848 3.70038C4.73848 3.51038 5.12848 3.19038 5.38848 3.00038C6.11848 2.47038 6.94848 2.07038 8.32848 1.60038C9.25848 1.27038 9.55848 1.14038 9.61848 1.02038C9.65848 0.950379 9.58848 0.940379 8.82848 0.920379C8.10848 0.910379 7.65848 0.930379 6.99848 1.02038C5.08848 1.27038 3.34848 1.96038 3.01848 2.58038C2.81848 2.98038 3.02848 3.32038 3.65848 3.57038C3.81848 3.64038 4.35848 3.82038 4.41848 3.83038C4.42848 3.83038 4.48848 3.77038 4.55848 3.70038Z " /><path id="路径 3" fill-rule="evenodd" style="fill:#FFFFFF" transform="translate(18.652181307024456 5.78481104031942)  rotate(0 1.1884948437371554 3.070469046359215)" opacity="1" d="M0.86,0.09C0.78,0.04 0.71,0 0.7,0C0.7,0.01 0.72,0.11 0.74,0.24C1.01,1.54 0.97,3.05 0.62,4.39C0.49,4.9 0.21,5.71 0.05,6.01C0.02,6.07 0,6.12 0,6.13C0,6.18 0.39,6.03 0.66,5.88C1.04,5.67 1.49,5.26 1.76,4.89C2.02,4.51 2.23,4 2.33,3.52C2.39,3.22 2.39,2.58 2.33,2.28C2.16,1.4 1.66,0.65 0.86,0.09Z " /></g></g></g></svg>