<svg xmlns="http://www.w3.org/2000/svg" xmlns:xlink="http://www.w3.org/1999/xlink" width="32" height="32" viewBox="0 0 32 32" fill="none"><g opacity="1" transform="translate(0 0)  rotate(0 16 15.999999999999998)"><path id="矩形 1" fill-rule="evenodd"  transform="translate(0 0)  rotate(0 16 15.999999999999998)" opacity="1" d="M0,32L32,32L32,0L0,0L0,32Z " /><path id="分组 1" fill-rule="evenodd" style="fill:#FFFFFF" transform="translate(4 7.78)  rotate(0 12 7.217713274144946)" opacity="1" d="M13.13 7.07C13.13 3.1 10.73 0.01 6.63 0C2.7 0 0 3.02 0 7.32C0 11.42 2.49 14.44 6.43 14.44C10.28 14.44 13.13 11.76 13.13 7.07Z M6.5711 12.389C9.0411 12.389 10.4311 10.109 10.4311 7.18903C10.4311 4.54903 9.1211 2.05903 6.5711 2.05903C4.0511 2.05903 2.7011 4.40903 2.7011 7.28903C2.7011 10.129 4.1311 12.389 6.5711 12.389Z M21.4586 8.5156L21.4586 14.2156L23.9986 14.2156L23.9986 8.2256C23.9986 5.0256 22.1686 3.8856 20.4086 3.8856C18.7386 3.8856 17.6386 4.8356 17.1986 5.6256L17.1386 5.6256L17.0186 4.1056L14.7786 4.1056C14.8386 4.9856 14.8586 5.9556 14.8586 7.1156L14.8686 14.2256L17.4386 14.2256L17.4386 8.2956C17.4386 8.0056 17.4586 7.6956 17.5386 7.4656C17.8086 6.6956 18.5086 5.9656 19.5286 5.9656C20.9086 5.9656 21.4586 7.0656 21.4586 8.5156Z " /></g></svg>