<svg version="1.2" xmlns="http://www.w3.org/2000/svg" viewBox="0 0 1024 1024" width="60" height="60">
	<title>shopping-svg</title>
	<style>
		.s0 { fill: #ffffff } 
	</style>
	<path id="Layer" fill-rule="evenodd" class="s0" d="m714 392.1v307.6c0 10.2-8.2 18.4-18.4 18.4h-367.2c-10.2 0-18.4-8.2-18.4-18.4v-307.6c0-10.1 8.2-18.3 18.4-18.3h78v-9.2c0-58.3 47.3-105.6 105.6-105.6 58.3 0 105.6 47.3 105.6 105.6v9.2h78c10.2 0 18.4 8.2 18.4 18.3zm-266.3-18.3h128.6v-9.2c0-35.5-28.8-64.3-64.3-64.3-35.5 0-64.3 28.8-64.3 64.3zm225 41.3h-55.1v50.5c0 2.5-2.1 4.6-4.6 4.6h-32.1c-2.6 0-4.6-2.1-4.6-4.6v-50.5h-128.6v50.5c0 2.5-2 4.6-4.6 4.6h-32.1c-2.5 0-4.6-2.1-4.6-4.6v-50.5h-55.1v261.7h321.4z"/>
</svg>