<svg xmlns="http://www.w3.org/2000/svg" xmlns:xlink="http://www.w3.org/1999/xlink" width="32" height="32" viewBox="0 0 32 32" fill="none"><g opacity="1" transform="translate(0 0)  rotate(0 16.000000000000004 15.999999999999998)"><path id="路径 2" fill-rule="evenodd" style="fill:#FFFFFF" transform="translate(11.499482486013449 7)  rotate(0 4.500517513986538 9.000000000000002)" opacity="1" d="M0,12.09C0,13.03 0.08,13.84 0.24,14.52C0.38,15.2 0.68,15.84 1.12,16.38C1.49,16.85 2.03,17.25 2.76,17.58C3.41,17.86 4.27,18 5.34,18C6.17,18 6.87,17.93 7.43,17.79C7.73,17.72 8.01,17.64 8.25,17.56C8.49,17.48 8.75,17.39 9,17.3L8.44,14.27C8.06,14.43 7.66,14.54 7.26,14.59C6.83,14.69 6.4,14.73 5.96,14.73C5.1,14.73 4.53,14.48 4.26,13.99C3.98,13.5 3.84,12.84 3.84,12.02L3.84,7.24L8.44,7.24L8.44,4.01L3.84,4.01L3.84,0L0,0.6L0,12.09Z " /></g></svg>