<svg xmlns="http://www.w3.org/2000/svg" xmlns:xlink="http://www.w3.org/1999/xlink" width="32" height="32" viewBox="0 0 32 32" fill="none"><defs><rect id="path_0" x="0" y="0" width="32" height="32" /><path id="path_1"
        transform="translate(0 0) rotate(0 9 9)"
        d="M0,18L18,18L18,0L0,0L0,18Z" /></defs><g opacity="1" transform="translate(0 0)  rotate(0 16 16)"><mask id="bg-mask-0" fill="white"><use xlink:href="#path_0"></use></mask><g mask="url(#bg-mask-0)" ><g opacity="1" transform="translate(0 0)  rotate(0 16 16)"><g opacity="1" transform="translate(7 7)  rotate(0 9 9)"><g opacity="1" transform="translate(0 0)  rotate(0 9 9)"><mask id="mask-1" fill="white"><use xlink:href="#path_1"></use></mask><g mask="url(#mask-1)"></g><g mask="url(#mask-1)"><g opacity="1" transform="translate(0.47384999999985666 0.4984875000000102)  rotate(0 8.529085000000006 8.51)"><path id="分组 1" fill-rule="evenodd" style="fill:#E68000" transform="translate(5.402070000000011 0)  rotate(0 5.82805 8.49)" opacity="1" d="M3.108 4.24998L0.128002 7.23998L3.108 10.26L3.108 4.24998Z M3.1064 10.26L7.4164 5.92L7.4164 0L3.1064 4.25L3.1064 10.26Z M11.6561 4.25L7.41611 6.10623e-16L7.41611 12.72L11.6561 16.98L11.6561 4.25Z M0 7.38198L3 10.382 " /><path id="分组 2" fill-rule="evenodd" style="fill:#327BB0" transform="translate(0 6.106226635438361e-16)  rotate(0 4.201035 8.51)" opacity="1" d="M0 17.02L4.21 12.76L4.21 0L0 4.22L0 17.02Z M4.20732 5.86L5.39732 7.08L8.39732 4.09L4.20732 0L4.20732 5.86Z M8.40207 10.382L5.40207 7.38198L5.40207 10.382L8.40207 10.382Z " /></g></g></g></g></g></g></g></svg>