<svg width="128" height="128" viewBox="0 0 128 128" fill="none" xmlns="http://www.w3.org/2000/svg">
 
<path d="M90.0432 87.3832C95.6119 81.1851 99 72.9882 99 64C99 44.67 83.33 29 64 29C44.67 29 29 44.67 29 64C29 83.33 44.67 99 64 99C72.2417 99 79.818 96.1514 85.7981 91.3849L77.0189 82.7651C72.6271 85.8978 67.2518 87.7407 61.4461 87.7407C46.619 87.7407 34.5992 75.7209 34.5992 60.8938C34.5992 46.0667 46.619 34.0469 61.4461 34.0469C76.2732 34.0469 88.293 46.0667 88.293 60.8938C88.293 67.8261 85.6655 74.1447 81.3521 78.9081L90.0432 87.3832Z" fill="white"/>
<path fill-rule="evenodd" clip-rule="evenodd" d="M43.096 49.3775C43.5027 49.616 43.639 50.139 43.4005 50.5457C41.4728 53.8322 40.4634 57.7289 40.4634 61.0834C40.4634 64.4983 41.2032 68.6859 43.3108 71.8782C43.5706 72.2716 43.4622 72.8011 43.0688 73.0609C42.6753 73.3207 42.1458 73.2123 41.886 72.8188C39.5268 69.2455 38.7561 64.6851 38.7561 61.0834C38.7561 57.4213 39.8484 53.227 41.9278 49.6819C42.1663 49.2752 42.6894 49.1389 43.096 49.3775Z" fill="white"/>
<path d="M45.823 46.6192C45.823 47.1378 45.4026 47.5582 44.884 47.5582C44.3654 47.5582 43.9449 47.1378 43.9449 46.6192C43.9449 46.1006 44.3654 45.6802 44.884 45.6802C45.4026 45.6802 45.823 46.1006 45.823 46.6192Z" fill="white"/>
</svg>
