<svg width="128" height="128" viewBox="0 0 128 128" fill="none" xmlns="http://www.w3.org/2000/svg">
 
<path d="M85.6805 66.0033C86.8956 64.0762 89.4429 63.499 91.37 64.7141C93.2971 65.9292 93.8744 68.4765 92.6592 70.4036L83.3773 85.1244C82.1622 87.0515 79.6149 87.6287 77.6878 86.4136C75.7607 85.1985 75.1835 82.6512 76.3986 80.7241L85.6805 66.0033Z" fill="#F9CFCF"/>
<path fill-rule="evenodd" clip-rule="evenodd" d="M82.5315 84.591L91.8134 69.8703C92.7339 68.4103 92.2966 66.4805 90.8367 65.56C89.3767 64.6394 87.4469 65.0767 86.5264 66.5367L77.2445 81.2575C76.3239 82.7174 76.7612 84.6472 78.2212 85.5677C79.6811 86.4883 81.6109 86.051 82.5315 84.591ZM91.37 64.7141C89.4429 63.499 86.8956 64.0762 85.6805 66.0033L76.3986 80.7241C75.1835 82.6512 75.7607 85.1985 77.6878 86.4136C79.6149 87.6287 82.1622 87.0515 83.3773 85.1244L92.6592 70.4036C93.8744 68.4765 93.2971 65.9292 91.37 64.7141Z" fill="#3762CC"/>
<path d="M48.0311 60.875H78.1451L83.3044 83.0921C85.7795 93.7506 77.6871 103.938 66.745 103.938H59.4312C48.4891 103.938 40.3967 93.7506 42.8718 83.0921L48.0311 60.875Z" fill="#A4C9FF"/>
<path fill-rule="evenodd" clip-rule="evenodd" d="M48.0311 60.875H78.1451L83.3044 83.0921C85.7795 93.7506 77.6871 103.938 66.745 103.938H59.4312C48.4891 103.938 40.3967 93.7506 42.8718 83.0921L48.0311 60.875ZM43.8459 83.3183L48.8255 61.875H77.3507L82.3303 83.3183C84.1347 91.0883 79.972 98.5921 73.2178 101.581C73.5971 100.995 73.9346 100.292 74.2369 99.5104C75.0565 97.3909 75.6606 94.5788 76.1038 91.653C76.9912 85.7944 77.25 79.3623 77.25 76.8125H76.25C76.25 79.3252 75.9932 85.7056 75.1151 91.5033C74.6754 94.4056 74.0842 97.1326 73.3042 99.1498C72.9137 100.16 72.4865 100.963 72.0279 101.519C71.5767 102.066 71.1322 102.33 70.6952 102.375H65.6032C65.3302 102.375 65.1097 102.158 65.1041 101.888C64.9864 96.1884 64.875 87.8122 64.875 86.3125C64.875 85.2279 64.2417 84.25 63.0625 84.25C61.9514 84.25 61.305 85.2764 61.3126 86.3161C61.3465 91.0188 61.4496 99.053 61.4866 101.87C61.4903 102.148 61.2664 102.375 60.9871 102.375H55.5938C55.3901 102.375 55.0954 102.239 54.7195 101.767C54.3536 101.308 53.9805 100.616 53.6125 99.716C52.8787 97.9221 52.2093 95.4167 51.6432 92.612C50.5117 87.0062 49.8125 80.3053 49.8125 75.9375H48.8125C48.8125 80.3823 49.5206 87.1501 50.663 92.8099C51.2338 95.638 51.918 98.2147 52.687 100.095C52.9559 100.752 53.2407 101.338 53.5426 101.825C46.4466 99.0199 41.9901 91.3099 43.8459 83.3183ZM62.0464 102.938H64.5437C64.2793 102.674 64.1127 102.312 64.1043 101.909C63.9866 96.2083 63.875 87.8233 63.875 86.3125C63.875 85.7766 63.679 85.25 63.0625 85.25C62.4299 85.25 62.3585 85.8407 62.3127 86.3343C62.3468 91.037 62.4496 99.0443 62.4866 101.856C62.4921 102.279 62.3229 102.662 62.0464 102.938Z" fill="#3762CC"/>
<path d="M41.5 25.2207V43.625L52.25 29.625L42.9951 24.3519C42.3284 23.972 41.5 24.4534 41.5 25.2207Z" fill="#F9CFCF"/>
<path fill-rule="evenodd" clip-rule="evenodd" d="M42.7475 24.7863C42.4142 24.5964 42 24.8371 42 25.2207V42.1529L51.5041 29.7755L42.7475 24.7863ZM41 25.2207C41 24.0698 42.2426 23.3477 43.2426 23.9174L52.996 29.4746L41 45.0972V25.2207Z" fill="#3762CC"/>
<path d="M84.3125 25.2207V43.625L73.5625 29.625L82.8175 24.3519C83.4841 23.972 84.3125 24.4534 84.3125 25.2207Z" fill="#F9CFCF"/>
<path fill-rule="evenodd" clip-rule="evenodd" d="M83.065 24.7863C83.3983 24.5964 83.8125 24.8371 83.8125 25.2207V42.1529L74.3085 29.7755L83.065 24.7863ZM84.8125 25.2207C84.8125 24.0698 83.5699 23.3477 82.57 23.9174L72.8166 29.4746L84.8125 45.0972V25.2207Z" fill="#3762CC"/>
<path d="M40.3731 45.3108C40.3731 35.922 47.9842 28.3108 57.3731 28.3108H68.1399C77.5288 28.3108 85.1399 35.922 85.1399 45.3108V47.6218C85.1399 57.0106 77.5288 64.6218 68.1399 64.6218H57.3731C47.9842 64.6218 40.3731 57.0106 40.3731 47.6218V45.3108Z" fill="#3762CC"/>
<path d="M41.3715 45.3745C41.3715 36.503 48.6431 29.3113 57.6132 29.3113H67.8998C76.8698 29.3113 84.1415 36.503 84.1415 45.3745V47.5581C84.1415 56.4296 77.5325 63.75 68.5625 63.75H58.4375C49.4675 63.75 41.3715 56.4296 41.3715 47.5581V45.3745Z" fill="#A4C9FF"/>
<path d="M76.9987 61.263C74.5408 62.7425 71.6503 63.75 68.5625 63.75H58.4375C55.63 63.75 53.0864 63.2957 50.7825 62.0556C50.3585 54.5427 56.1055 48.125 63.7188 48.125C71.1417 48.125 77.2173 53.7348 76.9987 61.263Z" fill="#E0EBFC"/>
<path d="M55.9375 45.4375C55.9375 47.3705 55.266 48.9375 54.4375 48.9375C53.6091 48.9375 52.9375 47.3705 52.9375 45.4375C52.9375 43.5045 53.6091 41.9375 54.4375 41.9375C55.266 41.9375 55.9375 43.5045 55.9375 45.4375Z" fill="#3762CC"/>
<path d="M73.5625 45.4375C73.5625 47.3705 72.891 48.9375 72.0625 48.9375C71.2341 48.9375 70.5625 47.3705 70.5625 45.4375C70.5625 43.5045 71.2341 41.9375 72.0625 41.9375C72.891 41.9375 73.5625 43.5045 73.5625 45.4375Z" fill="#3762CC"/>
<path d="M66.1818 47.3125C66.1818 49.0039 64.5058 49.75 63.1876 49.75C61.8693 49.75 60.2443 49.0039 60.2443 47.3125C60.2443 45.6211 61.4006 45.8436 63.1876 45.8437C64.9745 45.8437 66.1818 45.6211 66.1818 47.3125Z" fill="#3762CC"/>
<path fill-rule="evenodd" clip-rule="evenodd" d="M89.7305 43.1937L80.1055 48.1937L79.6445 47.3063L89.2695 42.3063L89.7305 43.1937ZM91 51.6875H79.875V50.6875H91V51.6875ZM89.252 60.1841L79.627 54.6841L80.1231 53.8159L89.7481 59.3159L89.252 60.1841Z" fill="#3762CC"/>
<path fill-rule="evenodd" clip-rule="evenodd" d="M35.8965 43.1938L45.5215 48.1938L45.9824 47.3064L36.3574 42.3064L35.8965 43.1938ZM34.627 51.6876H45.752V50.6876H34.627V51.6876ZM36.375 60.1842L46 54.6842L45.5039 53.816L35.8789 59.316L36.375 60.1842Z" fill="#3762CC"/>
<path fill-rule="evenodd" clip-rule="evenodd" d="M57.1652 52.8668C57.0328 52.7158 56.9011 52.5345 56.8381 52.3456L57.7868 52.0293C57.7868 52.0292 57.7869 52.0294 57.7871 52.0298C57.7902 52.0362 57.8198 52.0966 57.917 52.2075C58.0119 52.3157 58.1464 52.4439 58.3153 52.5777C58.6541 52.8461 59.1035 53.1151 59.5938 53.2855C60.0846 53.456 60.5904 53.5192 61.0613 53.4135C61.5207 53.3103 61.9889 53.0374 62.4069 52.4575C62.5033 52.3238 62.6595 52.2462 62.8243 52.2501C62.9892 52.254 63.1415 52.3389 63.2315 52.4771C63.9638 53.6017 65.0331 53.7869 66.006 53.5319C66.5011 53.4022 66.9573 53.1588 67.3016 52.8743C67.6564 52.581 67.8415 52.2878 67.8864 52.0812L68.8636 52.2937C68.7522 52.8058 68.3826 53.2782 67.9386 53.6451C67.484 54.0208 66.8973 54.3321 66.2595 54.4992C65.1263 54.7962 63.7911 54.639 62.7932 53.5428C62.3358 53.9972 61.8201 54.2679 61.2805 54.3891C60.5775 54.5471 59.8763 54.4423 59.2655 54.23C58.6543 54.0176 58.1076 53.6889 57.6944 53.3616C57.4873 53.1975 57.3069 53.0284 57.1652 52.8668Z" fill="#3762CC"/>
</svg>
