<svg xmlns="http://www.w3.org/2000/svg" xmlns:xlink="http://www.w3.org/1999/xlink" width="32" height="32" viewBox="0 0 32 32" fill="none"><g opacity="1" transform="translate(0 0)  rotate(0 16 16)"><path id="路径 1" fill-rule="evenodd" style="fill:#011211" transform="translate(0 0)  rotate(0 16 16)" opacity="1" d="M0,32C10.67,32 21.33,32 32,32C32,21.33 32,10.67 32,0C21.33,0 10.67,0 0,0C0,10.67 0,21.33 0,32Z " /><path id="文本 1" fill-rule="evenodd" style="fill:#FFFFFF" transform="translate(6.819999999999936 6.619999999999891)  rotate(0 9.16 9.24)" opacity="1" d="M9.53 3.17C9.53 3.17 9.92 3.06 10.1 2.66C10.1 2.66 10.28 2.26 10.1 1.74C10.1 1.74 9.92 1.22 9.24 0.74C9.24 0.74 8.56 0.26 7.26 0L7.06 0.14C7.06 0.14 7.58 0.64 8.07 1.43C8.07 1.43 8.56 2.22 8.66 2.94C8.66 2.94 9.14 3.28 9.53 3.17ZM17.5 2.94C17.5 2.94 17.04 2.58 16.7 2.32L16.36 2.06L15.32 3.38L0 3.38L0.16 3.96L17.78 3.96C17.78 3.96 18.24 3.96 18.32 3.64C18.32 3.64 17.96 3.3 17.5 2.94ZM3.14 6.3L12.68 6.3L13.7 5.08L14.01 5.32C14.32 5.56 14.75 5.9 14.75 5.9C15.18 6.24 15.54 6.56 15.54 6.56C15.48 6.88 15.02 6.88 15.02 6.88L3.3 6.88L3.14 6.3ZM14.05 8.2L13.74 7.96L12.72 9.18L3.14 9.18L3.3 9.76L15.06 9.76C15.06 9.76 15.52 9.76 15.6 9.44C15.6 9.44 15.24 9.12 14.8 8.78C14.8 8.78 14.36 8.44 14.05 8.2ZM13.54 18.3L13.28 18.3L13.28 17.18L5.04 17.18L5.04 17.96C5.04 18.08 4.6 18.28 4.6 18.28C4.16 18.48 3.66 18.48 3.66 18.48L3.44 18.48L3.44 11.32L5.16 12.06L13.08 12.06L13.92 11.14L15.74 12.54C15.66 12.64 15.43 12.76 15.43 12.76C15.2 12.88 14.92 12.94 14.92 12.94L14.92 17.86C14.92 17.92 14.68 18.02 14.68 18.02C14.44 18.12 14.13 18.21 14.13 18.21C13.82 18.3 13.54 18.3 13.54 18.3ZM13.28 12.66L13.28 16.6L5.04 16.6L5.04 12.66L13.28 12.66Z" /></g></svg>