<svg xmlns="http://www.w3.org/2000/svg" xmlns:xlink="http://www.w3.org/1999/xlink" width="30" height="30" viewBox="0 0 30 30" fill="none"><defs><rect id="path_0" x="0" y="0" width="30" height="30" /></defs><g opacity="1" transform="translate(0 0)  rotate(0 15 15)"><mask id="bg-mask" fill="white"><use xlink:href="#path_0"></use></mask><g mask="url(#bg-mask)" ><g opacity="1" transform="translate(0 0)  rotate(0 15 15)"><g opacity="1" transform="translate(0 0)  rotate(0 15 15)"><path id="矩形 1" fill-rule="evenodd"   transform="translate(0 0)  rotate(0 15 15)" opacity="1" d="M30,30L30,0L0,0L0,30L30,30Z " /><g opacity="1" transform="translate(7.062698855745543 4.333333333333332)  rotate(0 7.9358034385668335 10.668333333333333)"><g opacity="1" transform="translate(0 0)  rotate(0 7.9358034385668335 10.668333333333333)"><path id="路径 1" fill-rule="evenodd" style="fill:#95D53E" transform="translate(0 0)  rotate(0 7.9358034385668335 10.665)" opacity="1" d="M14.2,9.34C13.87,7.61 13.19,5.97 12.2,4.51C11.94,4.63 11.69,4.77 11.45,4.92C10.52,2.81 9.18,1.03 7.93,0C6.69,1.03 5.35,2.81 4.42,4.92C4.18,4.77 3.93,4.63 3.67,4.51C2.69,5.97 2.01,7.61 1.67,9.34C1.28,9.22 0.86,9.12 0.43,9.03C-1.77,17.73 4.99,20.92 7.93,21.33C10.87,20.92 17.63,17.73 15.44,9.03C15.01,9.12 14.59,9.22 14.2,9.34Z " /><path id="路径 2" fill-rule="evenodd" style="fill:#339503" transform="translate(10.01396781092112 9.919999999999996)  rotate(0 1.2981681752433627 2.865)" opacity="1" d="M0,1.64C0.53,2.93 0.77,4.33 0.69,5.73C1.99,4.11 2.67,2.08 2.59,0C1.65,0.41 0.77,0.96 0,1.64Z " /><path id="路径 3" fill-rule="evenodd" style="fill:#339503" transform="translate(3.2683388970512457 9.919999999999996)  rotate(0 1.2982083930398576 2.865)" opacity="1" d="M0.01,0C-0.07,2.08 0.6,4.11 1.91,5.73C1.83,4.33 2.06,2.93 2.6,1.64C1.82,0.96 0.95,0.41 0.01,0Z " /><path id="路径 4" fill-rule="evenodd" style="fill:#58B20F" transform="translate(7.937301144254457 4.919999999999948)  rotate(0 2.335 3.32)" opacity="1" d="M3.5,0C2.16,0.84 0.98,1.89 0,3.12C0.87,4.18 1.58,5.37 2.09,6.64C2.86,5.96 3.73,5.41 4.67,5C4.61,3.27 4.21,1.57 3.5,0Z " /><path id="路径 5" fill-rule="evenodd" style="fill:#58B20F" transform="translate(3.27063447758779 4.919999999999945)  rotate(0 2.335 3.32)" opacity="1" d="M1.17,0C0.46,1.57 0.06,3.27 0,5C0.94,5.41 1.81,5.96 2.58,6.64C3.09,5.37 3.8,4.18 4.67,3.12C3.68,1.89 2.5,0.84 1.17,0Z " /><path id="路径 6" fill-rule="evenodd" style="fill:#58B20F" transform="translate(1.3595434185848196 9.333333333333329)  rotate(0 3.2907632134923532 6)" opacity="1" d="M6.58,12C4.76,10.16 3.95,8.22 3.81,6.31C2.51,4.7 1.83,2.66 1.91,0.59C1.39,0.36 0.86,0.16 0.31,0C-0.63,4.5 0.31,10.1 6.58,12Z " /><path id="路径 7" fill-rule="evenodd" style="fill:#58B20F" transform="translate(7.937301144254457 9.333333333333329)  rotate(0 3.287775370674961 6)" opacity="1" d="M0,12C6.26,10.1 7.21,4.5 6.26,0C5.72,0.16 5.19,0.36 4.67,0.59C4.74,2.66 4.07,4.7 2.77,6.31C2.63,8.22 1.82,10.16 0,12Z " /><path id="路径 8" fill-rule="evenodd" style="fill:#339503" transform="translate(5.850634477587802 8.043333333333331)  rotate(0 2.09 3.255)" opacity="1" d="M2.09,6.51C2.53,5.36 3.25,4.33 4.18,3.51C3.66,2.24 2.96,1.06 2.09,0C1.22,1.06 0.51,2.24 0,3.51C0.92,4.33 1.64,5.36 2.09,6.51Z " /><path id="路径 9" fill-rule="evenodd" style="fill:#339503" transform="translate(7.937301144254537 15.646666666666663)  rotate(0 1.385 2.845)" opacity="1" d="M2.77,0C2.14,0.77 1.39,1.44 0.57,1.99C0.57,3.24 0.38,4.49 0,5.69C1.82,3.85 2.63,1.9 2.77,0Z " /><path id="路径 10" fill-rule="evenodd" style="fill:#339503" transform="translate(5.170634477587788 15.646666666666663)  rotate(0 1.385 2.845)" opacity="1" d="M2.77,5.69C2.39,4.49 2.2,3.24 2.2,1.99C1.37,1.44 0.63,0.77 0,0C0.14,1.9 0.95,3.85 2.77,5.69Z " /><path id="路径 11" fill-rule="evenodd" style="fill:#1F7B02" transform="translate(7.9373011442544605 11.556666666666667)  rotate(0 1.3927527106554909 3.035)" opacity="1" d="M0.57,6.07C1.39,5.51 2.14,4.84 2.77,4.07C2.85,2.68 2.62,1.29 2.09,0C1.16,0.82 0.45,1.85 0,3C0.37,3.98 0.56,5.02 0.57,6.07Z " /><path id="路径 12" fill-rule="evenodd" style="fill:#1F7B02" transform="translate(5.156238531752141 11.556666666666667)  rotate(0 1.389268940756213 3.035)" opacity="1" d="M2.22,6.07C2.22,5.02 2.41,3.98 2.78,3C2.34,1.85 1.62,0.82 0.69,0C0.17,1.29 -0.07,2.68 0.02,4.07C0.65,4.84 1.39,5.51 2.22,6.07Z " /><path id="路径 13" fill-rule="evenodd" style="fill:#126801" transform="translate(7.370634477587791 14.566666666666672)  rotate(0 0.565 1.715)" opacity="1" d="M0,3.07C0.18,3.19 0.37,3.31 0.57,3.43C0.76,3.31 0.95,3.19 1.13,3.07C1.13,2.02 0.94,0.98 0.57,0C0.2,0.98 0.01,2.02 0,3.07Z " /><path id="路径 14" fill-rule="evenodd" style="fill:#1F7B02" transform="translate(7.373937340477381 17.63333333333333)  rotate(0 0.565 1.85)" opacity="1" d="M0.56,3.7C0.94,2.5 1.13,1.26 1.13,0C0.95,0.12 0.76,0.24 0.56,0.37C0.37,0.25 0.18,0.13 0,0.01C0,1.26 0.19,2.51 0.56,3.7Z " /></g></g></g></g></g></g></svg>